<?xml version="1.0" encoding="utf-8"?>
<!-- Generator: Adobe Illustrator 25.4.1, SVG Export Plug-In . SVG Version: 6.00 Build 0)  -->
<svg version="1.1" id="Camada_1" xmlns="http://www.w3.org/2000/svg" xmlns:xlink="http://www.w3.org/1999/xlink" x="0px" y="0px"
	 viewBox="0 0 248.7 219.7" style="enable-background:new 0 0 248.7 219.7;" xml:space="preserve">
<style type="text/css">
	.st0{fill:#009DE1;}
</style>
<g>
	<path class="st0" d="M161.6,80.4c0-6.9-0.1-13.4,0-19.9c0.1-7,4.8-11.8,11.3-11.7c6.3,0.1,11,4.9,11,11.7c0.1,16.1,0.1,32.1,0,48.2
		c0,6.9-3.2,9.9-10.1,9.9c-15.9,0-31.9,0-47.8,0c-7.2,0-12-4.5-12-11c0-6.2,4.5-10.7,11.6-11.1c3-0.2,6.1-0.1,9.2-0.1
		c3,0,6.1,0,9.2,0c0.2-1.6-0.9-2.4-1.5-3.3c-12.9-17.5-25.9-35-38.8-52.5c-11.4-15.4-30.1-21.8-48-16.3C40.4,29,24.4,43.5,23.1,64.4
		C22.3,75,25,84.5,31.2,93.1c20.8,28.7,41.5,57.4,62.4,86.1c7.7,10.6,17.5,18.2,31.5,18c13.1-0.2,22.3-7.4,30-17.2
		c6.1-7.7,12.2-15.4,18.3-23.1c3-3.7,6.9-5.3,11.7-4.1c4.5,1.2,7.2,4.2,8.2,8.8c0.6,2.9,0.1,5.8-1.6,8
		c-8.2,10.4-15.8,21.4-25.1,30.9c-25.9,26.4-61.5,25.4-86-2.2c-9.4-10.6-17-22.7-25.4-34.2C41,144.8,26.7,125.5,13,105.8
		c-16-23-17.4-47.6-3.3-71.6C23.9,10,46.1-1.8,74.4,0.5c19.4,1.5,35,10.7,46.7,26.3c12.4,16.7,24.8,33.5,37.2,50.2
		C159.2,78.1,159.7,79.6,161.6,80.4z"/>
	<path class="st0" d="M248.7,67.4c0,13.8-4,26.4-11.8,37.7c-2,2.8-3.9,5.7-5.9,8.5c-3.9,5.3-10.7,6.5-15.8,2.9
		c-5-3.5-6.1-10.1-2.6-15.5c1.7-2.7,3.6-5.2,5.4-7.8c12.4-18.1,11.1-40.1-3.3-55.6c-15.4-16.4-37.5-19.8-56.5-8.7
		c-6.6,3.8-13.7,2.2-16.7-3.9c-2.7-5.5-0.9-11.6,4.9-15C165.8-1.5,186.1-3.1,207,5.5C232.5,16,248.6,40.3,248.7,67.4z"/>
</g>
</svg>
